<mxfile host="app.diagrams.net" agent="Mozilla/5.0 (Windows NT 10.0; Win64; x64) AppleWebKit/537.36 (KHTML, like Gecko) Chrome/127.0.0.0 Safari/537.36" version="24.7.7">
  <diagram id="C5RBs43oDa-KdzZeNtuy" name="Page-1">
    <mxGraphModel dx="1479" dy="347" grid="1" gridSize="10" guides="1" tooltips="1" connect="1" arrows="1" fold="1" page="1" pageScale="1" pageWidth="827" pageHeight="1169" math="0" shadow="0">
      <root>
        <mxCell id="WIyWlLk6GJQsqaUBKTNV-0" />
        <mxCell id="WIyWlLk6GJQsqaUBKTNV-1" parent="WIyWlLk6GJQsqaUBKTNV-0" />
        <mxCell id="PM-5KwTuOtwhzapy0X1u-0" value="MainMenu" style="swimlane;fontStyle=1;align=center;verticalAlign=top;childLayout=stackLayout;horizontal=1;startSize=26;horizontalStack=0;resizeParent=1;resizeParentMax=0;resizeLast=0;collapsible=1;marginBottom=0;whiteSpace=wrap;html=1;" parent="WIyWlLk6GJQsqaUBKTNV-1" vertex="1">
          <mxGeometry x="20" y="10" width="160" height="190" as="geometry" />
        </mxCell>
        <mxCell id="fyZz9nZu6kFh7QigJb9L-52" value="&lt;div&gt;&lt;div&gt;+ CharacterSelection&lt;/div&gt;&lt;/div&gt;&lt;div&gt;+ Gameplay&lt;br&gt;&lt;/div&gt;&lt;div&gt;+ Settings&lt;br&gt;&lt;/div&gt;+ Credits&lt;div&gt;+ QuitGame&lt;/div&gt;&lt;div&gt;&lt;br&gt;&lt;/div&gt;" style="text;strokeColor=none;fillColor=none;align=left;verticalAlign=top;spacingLeft=4;spacingRight=4;overflow=hidden;rotatable=0;points=[[0,0.5],[1,0.5]];portConstraint=eastwest;whiteSpace=wrap;html=1;" parent="PM-5KwTuOtwhzapy0X1u-0" vertex="1">
          <mxGeometry y="26" width="160" height="84" as="geometry" />
        </mxCell>
        <mxCell id="PM-5KwTuOtwhzapy0X1u-2" value="" style="line;strokeWidth=1;fillColor=none;align=left;verticalAlign=middle;spacingTop=-1;spacingLeft=3;spacingRight=3;rotatable=0;labelPosition=right;points=[];portConstraint=eastwest;strokeColor=inherit;" parent="PM-5KwTuOtwhzapy0X1u-0" vertex="1">
          <mxGeometry y="110" width="160" height="8" as="geometry" />
        </mxCell>
        <mxCell id="PM-5KwTuOtwhzapy0X1u-3" value="+ StartGame(): Button&lt;div&gt;+ ButtonSettings(): Button&lt;br&gt;&lt;/div&gt;&lt;div&gt;+ ButtonCredits():&amp;nbsp;&lt;span style=&quot;background-color: initial;&quot;&gt;Button&lt;/span&gt;&lt;br&gt;&lt;/div&gt;&lt;div&gt;+ ButtonQuitGame():&amp;nbsp;&lt;span style=&quot;background-color: initial;&quot;&gt;Button&lt;/span&gt;&lt;br&gt;&lt;/div&gt;" style="text;strokeColor=none;fillColor=none;align=left;verticalAlign=top;spacingLeft=4;spacingRight=4;overflow=hidden;rotatable=0;points=[[0,0.5],[1,0.5]];portConstraint=eastwest;whiteSpace=wrap;html=1;" parent="PM-5KwTuOtwhzapy0X1u-0" vertex="1">
          <mxGeometry y="118" width="160" height="72" as="geometry" />
        </mxCell>
        <mxCell id="PM-5KwTuOtwhzapy0X1u-7" value="Pause" style="swimlane;fontStyle=1;align=center;verticalAlign=top;childLayout=stackLayout;horizontal=1;startSize=26;horizontalStack=0;resizeParent=1;resizeParentMax=0;resizeLast=0;collapsible=1;marginBottom=0;whiteSpace=wrap;html=1;" parent="WIyWlLk6GJQsqaUBKTNV-1" vertex="1">
          <mxGeometry x="270" y="299" width="160" height="96" as="geometry" />
        </mxCell>
        <mxCell id="PM-5KwTuOtwhzapy0X1u-9" value="" style="line;strokeWidth=1;fillColor=none;align=left;verticalAlign=middle;spacingTop=-1;spacingLeft=3;spacingRight=3;rotatable=0;labelPosition=right;points=[];portConstraint=eastwest;strokeColor=inherit;" parent="PM-5KwTuOtwhzapy0X1u-7" vertex="1">
          <mxGeometry y="26" width="160" height="8" as="geometry" />
        </mxCell>
        <mxCell id="PM-5KwTuOtwhzapy0X1u-10" value="+ Resume(): void&lt;div&gt;+ ShowSettings(): void&lt;/div&gt;&lt;div&gt;+ MainMenu(): void&lt;br&gt;&lt;/div&gt;" style="text;strokeColor=none;fillColor=none;align=left;verticalAlign=top;spacingLeft=4;spacingRight=4;overflow=hidden;rotatable=0;points=[[0,0.5],[1,0.5]];portConstraint=eastwest;whiteSpace=wrap;html=1;" parent="PM-5KwTuOtwhzapy0X1u-7" vertex="1">
          <mxGeometry y="34" width="160" height="62" as="geometry" />
        </mxCell>
        <mxCell id="PM-5KwTuOtwhzapy0X1u-11" value="CharacterSelection" style="swimlane;fontStyle=1;align=center;verticalAlign=top;childLayout=stackLayout;horizontal=1;startSize=26;horizontalStack=0;resizeParent=1;resizeParentMax=0;resizeLast=0;collapsible=1;marginBottom=0;whiteSpace=wrap;html=1;" parent="WIyWlLk6GJQsqaUBKTNV-1" vertex="1">
          <mxGeometry x="-189" y="126" width="150" height="110" as="geometry" />
        </mxCell>
        <mxCell id="PM-5KwTuOtwhzapy0X1u-12" value="+ isGirl: bool&lt;div&gt;+ name: text&lt;/div&gt;" style="text;strokeColor=none;fillColor=none;align=left;verticalAlign=top;spacingLeft=4;spacingRight=4;overflow=hidden;rotatable=0;points=[[0,0.5],[1,0.5]];portConstraint=eastwest;whiteSpace=wrap;html=1;" parent="PM-5KwTuOtwhzapy0X1u-11" vertex="1">
          <mxGeometry y="26" width="150" height="34" as="geometry" />
        </mxCell>
        <mxCell id="PM-5KwTuOtwhzapy0X1u-13" value="" style="line;strokeWidth=1;fillColor=none;align=left;verticalAlign=middle;spacingTop=-1;spacingLeft=3;spacingRight=3;rotatable=0;labelPosition=right;points=[];portConstraint=eastwest;strokeColor=inherit;" parent="PM-5KwTuOtwhzapy0X1u-11" vertex="1">
          <mxGeometry y="60" width="150" height="8" as="geometry" />
        </mxCell>
        <mxCell id="PM-5KwTuOtwhzapy0X1u-14" value="+ SetGender(isGirl): void&lt;div&gt;+ SetName(name): void&lt;/div&gt;" style="text;strokeColor=none;fillColor=none;align=left;verticalAlign=top;spacingLeft=4;spacingRight=4;overflow=hidden;rotatable=0;points=[[0,0.5],[1,0.5]];portConstraint=eastwest;whiteSpace=wrap;html=1;" parent="PM-5KwTuOtwhzapy0X1u-11" vertex="1">
          <mxGeometry y="68" width="150" height="42" as="geometry" />
        </mxCell>
        <mxCell id="Fq8qwDuP9DsIz9NjlV5c-0" value="Gameplay" style="swimlane;fontStyle=1;align=center;verticalAlign=top;childLayout=stackLayout;horizontal=1;startSize=26;horizontalStack=0;resizeParent=1;resizeParentMax=0;resizeLast=0;collapsible=1;marginBottom=0;whiteSpace=wrap;html=1;" parent="WIyWlLk6GJQsqaUBKTNV-1" vertex="1">
          <mxGeometry x="25" y="210" width="150" height="180" as="geometry" />
        </mxCell>
        <mxCell id="fyZz9nZu6kFh7QigJb9L-56" value="&lt;div&gt;&lt;div&gt;+ Player&lt;/div&gt;&lt;div&gt;+ Camera&lt;/div&gt;&lt;/div&gt;&lt;div&gt;+ Pause&lt;br&gt;&lt;/div&gt;&lt;div&gt;+&amp;nbsp;&lt;span style=&quot;background-color: initial;&quot;&gt;Mission&lt;/span&gt;&lt;/div&gt;&lt;div&gt;+ Action&lt;/div&gt;&lt;div&gt;+ DateTime&lt;/div&gt;" style="text;strokeColor=none;fillColor=none;align=left;verticalAlign=top;spacingLeft=4;spacingRight=4;overflow=hidden;rotatable=0;points=[[0,0.5],[1,0.5]];portConstraint=eastwest;whiteSpace=wrap;html=1;" parent="Fq8qwDuP9DsIz9NjlV5c-0" vertex="1">
          <mxGeometry y="26" width="150" height="94" as="geometry" />
        </mxCell>
        <mxCell id="Fq8qwDuP9DsIz9NjlV5c-2" value="" style="line;strokeWidth=1;fillColor=none;align=left;verticalAlign=middle;spacingTop=-1;spacingLeft=3;spacingRight=3;rotatable=0;labelPosition=right;points=[];portConstraint=eastwest;strokeColor=inherit;" parent="Fq8qwDuP9DsIz9NjlV5c-0" vertex="1">
          <mxGeometry y="120" width="150" height="8" as="geometry" />
        </mxCell>
        <mxCell id="Fq8qwDuP9DsIz9NjlV5c-3" value="+ ButtonMission(): Button&lt;div&gt;+ ButtonPause():&amp;nbsp;&lt;span style=&quot;background-color: initial;&quot;&gt;Button&lt;/span&gt;&lt;/div&gt;&lt;div&gt;+ ButtonAction():&amp;nbsp;&lt;span style=&quot;background-color: initial;&quot;&gt;Button&lt;/span&gt;&lt;/div&gt;" style="text;strokeColor=none;fillColor=none;align=left;verticalAlign=top;spacingLeft=4;spacingRight=4;overflow=hidden;rotatable=0;points=[[0,0.5],[1,0.5]];portConstraint=eastwest;whiteSpace=wrap;html=1;" parent="Fq8qwDuP9DsIz9NjlV5c-0" vertex="1">
          <mxGeometry y="128" width="150" height="52" as="geometry" />
        </mxCell>
        <mxCell id="fyZz9nZu6kFh7QigJb9L-0" value="Settings" style="swimlane;fontStyle=1;align=center;verticalAlign=top;childLayout=stackLayout;horizontal=1;startSize=26;horizontalStack=0;resizeParent=1;resizeParentMax=0;resizeLast=0;collapsible=1;marginBottom=0;whiteSpace=wrap;html=1;" parent="WIyWlLk6GJQsqaUBKTNV-1" vertex="1">
          <mxGeometry x="250" y="20" width="270" height="270" as="geometry" />
        </mxCell>
        <mxCell id="fyZz9nZu6kFh7QigJb9L-1" value="+ musicVolume: float&lt;div&gt;+ soundVolume: float&lt;br&gt;&lt;/div&gt;&lt;div&gt;+ sensitivityCamera: float&lt;br&gt;&lt;/div&gt;&lt;div&gt;+&amp;nbsp;zoomCamera: float&lt;/div&gt;" style="text;strokeColor=none;fillColor=none;align=left;verticalAlign=top;spacingLeft=4;spacingRight=4;overflow=hidden;rotatable=0;points=[[0,0.5],[1,0.5]];portConstraint=eastwest;whiteSpace=wrap;html=1;" parent="fyZz9nZu6kFh7QigJb9L-0" vertex="1">
          <mxGeometry y="26" width="270" height="64" as="geometry" />
        </mxCell>
        <mxCell id="fyZz9nZu6kFh7QigJb9L-2" value="" style="line;strokeWidth=1;fillColor=none;align=left;verticalAlign=middle;spacingTop=-1;spacingLeft=3;spacingRight=3;rotatable=0;labelPosition=right;points=[];portConstraint=eastwest;strokeColor=inherit;" parent="fyZz9nZu6kFh7QigJb9L-0" vertex="1">
          <mxGeometry y="90" width="270" height="8" as="geometry" />
        </mxCell>
        <mxCell id="fyZz9nZu6kFh7QigJb9L-3" value="&lt;div&gt;+ ShowSettings(): void&lt;br&gt;&lt;/div&gt;&lt;div&gt;+ HideSettings(): void&lt;br&gt;&lt;/div&gt;&lt;div&gt;+ GetMusicVolume(): void&lt;br&gt;&lt;/div&gt;+ SetMusicVolume(musicVolume): void&lt;div&gt;+ GetSoundVolume(): void&lt;br&gt;&lt;/div&gt;&lt;div&gt;+ SetSoundVolume(soundVolume): void&lt;br&gt;&lt;/div&gt;&lt;div&gt;+ GetSensitivityCamera(): void&lt;br&gt;&lt;/div&gt;&lt;div&gt;+ SetSensitivityCamera(sensitivityCamera): void&lt;br&gt;&lt;/div&gt;&lt;div&gt;+ GetZoomCamera(): void&lt;br&gt;&lt;/div&gt;&lt;div&gt;+ SetZoomCamera(zoomCamera): void&lt;br&gt;&lt;/div&gt;&lt;div&gt;+&amp;nbsp;ResetButton(): void&lt;/div&gt;" style="text;strokeColor=none;fillColor=none;align=left;verticalAlign=top;spacingLeft=4;spacingRight=4;overflow=hidden;rotatable=0;points=[[0,0.5],[1,0.5]];portConstraint=eastwest;whiteSpace=wrap;html=1;" parent="fyZz9nZu6kFh7QigJb9L-0" vertex="1">
          <mxGeometry y="98" width="270" height="172" as="geometry" />
        </mxCell>
        <mxCell id="fyZz9nZu6kFh7QigJb9L-4" value="QuitGame" style="swimlane;fontStyle=1;align=center;verticalAlign=top;childLayout=stackLayout;horizontal=1;startSize=26;horizontalStack=0;resizeParent=1;resizeParentMax=0;resizeLast=0;collapsible=1;marginBottom=0;whiteSpace=wrap;html=1;" parent="WIyWlLk6GJQsqaUBKTNV-1" vertex="1">
          <mxGeometry x="-352" y="57" width="150" height="90" as="geometry" />
        </mxCell>
        <mxCell id="fyZz9nZu6kFh7QigJb9L-13" value="" style="line;strokeWidth=1;fillColor=none;align=left;verticalAlign=middle;spacingTop=-1;spacingLeft=3;spacingRight=3;rotatable=0;labelPosition=right;points=[];portConstraint=eastwest;strokeColor=inherit;" parent="fyZz9nZu6kFh7QigJb9L-4" vertex="1">
          <mxGeometry y="26" width="150" height="8" as="geometry" />
        </mxCell>
        <mxCell id="fyZz9nZu6kFh7QigJb9L-7" value="&lt;div&gt;+ ShowQuitGame(): void&lt;br&gt;&lt;/div&gt;&lt;div&gt;+ HideQuitGame(): void&lt;br&gt;&lt;/div&gt;&lt;div&gt;+ QuitGame(): void&lt;/div&gt;" style="text;strokeColor=none;fillColor=none;align=left;verticalAlign=top;spacingLeft=4;spacingRight=4;overflow=hidden;rotatable=0;points=[[0,0.5],[1,0.5]];portConstraint=eastwest;whiteSpace=wrap;html=1;" parent="fyZz9nZu6kFh7QigJb9L-4" vertex="1">
          <mxGeometry y="34" width="150" height="56" as="geometry" />
        </mxCell>
        <mxCell id="fyZz9nZu6kFh7QigJb9L-14" value="Credits" style="swimlane;fontStyle=1;align=center;verticalAlign=top;childLayout=stackLayout;horizontal=1;startSize=26;horizontalStack=0;resizeParent=1;resizeParentMax=0;resizeLast=0;collapsible=1;marginBottom=0;whiteSpace=wrap;html=1;strokeWidth=1;swimlaneLine=1;" parent="WIyWlLk6GJQsqaUBKTNV-1" vertex="1">
          <mxGeometry x="-171" y="20" width="130" height="74" as="geometry" />
        </mxCell>
        <mxCell id="fyZz9nZu6kFh7QigJb9L-15" value="" style="line;strokeWidth=1;fillColor=none;align=left;verticalAlign=middle;spacingTop=-1;spacingLeft=3;spacingRight=3;rotatable=0;labelPosition=right;points=[];portConstraint=eastwest;strokeColor=inherit;" parent="fyZz9nZu6kFh7QigJb9L-14" vertex="1">
          <mxGeometry y="26" width="130" height="8" as="geometry" />
        </mxCell>
        <mxCell id="fyZz9nZu6kFh7QigJb9L-16" value="&lt;div&gt;+ ShowCredits(): void&lt;/div&gt;&lt;div&gt;+ HideCredits(): void&lt;/div&gt;" style="text;strokeColor=none;fillColor=none;align=left;verticalAlign=top;spacingLeft=4;spacingRight=4;overflow=hidden;rotatable=0;points=[[0,0.5],[1,0.5]];portConstraint=eastwest;whiteSpace=wrap;html=1;strokeWidth=1;swimlaneLine=1;" parent="fyZz9nZu6kFh7QigJb9L-14" vertex="1">
          <mxGeometry y="34" width="130" height="40" as="geometry" />
        </mxCell>
        <mxCell id="fyZz9nZu6kFh7QigJb9L-65" style="edgeStyle=orthogonalEdgeStyle;rounded=0;orthogonalLoop=1;jettySize=auto;html=1;entryX=0.995;entryY=0.62;entryDx=0;entryDy=0;exitX=0;exitY=0.5;exitDx=0;exitDy=0;endArrow=diamondThin;endFill=0;endSize=15;entryPerimeter=0;" parent="WIyWlLk6GJQsqaUBKTNV-1" source="fyZz9nZu6kFh7QigJb9L-18" edge="1">
          <mxGeometry relative="1" as="geometry">
            <mxPoint x="271" y="459" as="sourcePoint" />
            <mxPoint x="175.25" y="295.28000000000003" as="targetPoint" />
            <Array as="points">
              <mxPoint x="231" y="444" />
              <mxPoint x="231" y="295" />
            </Array>
          </mxGeometry>
        </mxCell>
        <mxCell id="fyZz9nZu6kFh7QigJb9L-17" value="Mission" style="swimlane;fontStyle=1;align=center;verticalAlign=top;childLayout=stackLayout;horizontal=1;startSize=26;horizontalStack=0;resizeParent=1;resizeParentMax=0;resizeLast=0;collapsible=1;marginBottom=0;whiteSpace=wrap;html=1;" parent="WIyWlLk6GJQsqaUBKTNV-1" vertex="1">
          <mxGeometry x="270" y="406" width="160" height="100" as="geometry" />
        </mxCell>
        <mxCell id="fyZz9nZu6kFh7QigJb9L-18" value="+ mission: int" style="text;strokeColor=none;fillColor=none;align=left;verticalAlign=top;spacingLeft=4;spacingRight=4;overflow=hidden;rotatable=0;points=[[0,0.5],[1,0.5]];portConstraint=eastwest;whiteSpace=wrap;html=1;" parent="fyZz9nZu6kFh7QigJb9L-17" vertex="1">
          <mxGeometry y="26" width="160" height="24" as="geometry" />
        </mxCell>
        <mxCell id="fyZz9nZu6kFh7QigJb9L-19" value="" style="line;strokeWidth=1;fillColor=none;align=left;verticalAlign=middle;spacingTop=-1;spacingLeft=3;spacingRight=3;rotatable=0;labelPosition=right;points=[];portConstraint=eastwest;strokeColor=inherit;" parent="fyZz9nZu6kFh7QigJb9L-17" vertex="1">
          <mxGeometry y="50" width="160" height="8" as="geometry" />
        </mxCell>
        <mxCell id="fyZz9nZu6kFh7QigJb9L-20" value="+ GetMission(): void&lt;div&gt;+ SetMission(mission): void&lt;/div&gt;" style="text;strokeColor=none;fillColor=none;align=left;verticalAlign=top;spacingLeft=4;spacingRight=4;overflow=hidden;rotatable=0;points=[[0,0.5],[1,0.5]];portConstraint=eastwest;whiteSpace=wrap;html=1;" parent="fyZz9nZu6kFh7QigJb9L-17" vertex="1">
          <mxGeometry y="58" width="160" height="42" as="geometry" />
        </mxCell>
        <mxCell id="fyZz9nZu6kFh7QigJb9L-22" value="Player" style="swimlane;fontStyle=1;align=center;verticalAlign=top;childLayout=stackLayout;horizontal=1;startSize=26;horizontalStack=0;resizeParent=1;resizeParentMax=0;resizeLast=0;collapsible=1;marginBottom=0;whiteSpace=wrap;html=1;" parent="WIyWlLk6GJQsqaUBKTNV-1" vertex="1">
          <mxGeometry x="-235" y="243" width="190" height="210" as="geometry">
            <mxRectangle x="610" y="260" width="70" height="30" as="alternateBounds" />
          </mxGeometry>
        </mxCell>
        <mxCell id="fyZz9nZu6kFh7QigJb9L-23" value="&lt;div&gt;+ Joystick&lt;/div&gt;+ turnSmoothTime: float&lt;div&gt;+&amp;nbsp;movementSpeed: float&lt;/div&gt;&lt;div&gt;+&amp;nbsp;maxFallZone: float&lt;/div&gt;&lt;div&gt;+ startPosition: Vector3&lt;/div&gt;&lt;div&gt;+ startRotation: Quaternion&lt;/div&gt;" style="text;strokeColor=none;fillColor=none;align=left;verticalAlign=top;spacingLeft=4;spacingRight=4;overflow=hidden;rotatable=0;points=[[0,0.5],[1,0.5]];portConstraint=eastwest;whiteSpace=wrap;html=1;" parent="fyZz9nZu6kFh7QigJb9L-22" vertex="1">
          <mxGeometry y="26" width="190" height="94" as="geometry" />
        </mxCell>
        <mxCell id="fyZz9nZu6kFh7QigJb9L-24" value="" style="line;strokeWidth=1;fillColor=none;align=left;verticalAlign=middle;spacingTop=-1;spacingLeft=3;spacingRight=3;rotatable=0;labelPosition=right;points=[];portConstraint=eastwest;strokeColor=inherit;" parent="fyZz9nZu6kFh7QigJb9L-22" vertex="1">
          <mxGeometry y="120" width="190" height="8" as="geometry" />
        </mxCell>
        <mxCell id="fyZz9nZu6kFh7QigJb9L-25" value="&lt;div&gt;+ GetPosition(): void&lt;br&gt;&lt;/div&gt;+ SetPosition(startPosition): void&lt;div&gt;+ GetRotation(): void&lt;br&gt;&lt;/div&gt;&lt;div&gt;+ SetRotation(startRotation): void&lt;/div&gt;&lt;div&gt;+ Move(horizontal, vertical): void&lt;/div&gt;" style="text;strokeColor=none;fillColor=none;align=left;verticalAlign=top;spacingLeft=4;spacingRight=4;overflow=hidden;rotatable=0;points=[[0,0.5],[1,0.5]];portConstraint=eastwest;whiteSpace=wrap;html=1;" parent="fyZz9nZu6kFh7QigJb9L-22" vertex="1">
          <mxGeometry y="128" width="190" height="82" as="geometry" />
        </mxCell>
        <mxCell id="fyZz9nZu6kFh7QigJb9L-26" value="Joystick" style="swimlane;fontStyle=1;align=center;verticalAlign=top;childLayout=stackLayout;horizontal=1;startSize=26;horizontalStack=0;resizeParent=1;resizeParentMax=0;resizeLast=0;collapsible=1;marginBottom=0;whiteSpace=wrap;html=1;" parent="WIyWlLk6GJQsqaUBKTNV-1" vertex="1">
          <mxGeometry x="-480" y="260" width="191" height="110" as="geometry">
            <mxRectangle x="610" y="260" width="70" height="30" as="alternateBounds" />
          </mxGeometry>
        </mxCell>
        <mxCell id="fyZz9nZu6kFh7QigJb9L-27" value="+ horizontal: float&lt;div&gt;+&amp;nbsp;vertical: float&lt;/div&gt;&lt;div&gt;&lt;br&gt;&lt;/div&gt;" style="text;strokeColor=none;fillColor=none;align=left;verticalAlign=top;spacingLeft=4;spacingRight=4;overflow=hidden;rotatable=0;points=[[0,0.5],[1,0.5]];portConstraint=eastwest;whiteSpace=wrap;html=1;" parent="fyZz9nZu6kFh7QigJb9L-26" vertex="1">
          <mxGeometry y="26" width="191" height="34" as="geometry" />
        </mxCell>
        <mxCell id="fyZz9nZu6kFh7QigJb9L-28" value="" style="line;strokeWidth=1;fillColor=none;align=left;verticalAlign=middle;spacingTop=-1;spacingLeft=3;spacingRight=3;rotatable=0;labelPosition=right;points=[];portConstraint=eastwest;strokeColor=inherit;" parent="fyZz9nZu6kFh7QigJb9L-26" vertex="1">
          <mxGeometry y="60" width="191" height="8" as="geometry" />
        </mxCell>
        <mxCell id="fyZz9nZu6kFh7QigJb9L-29" value="&lt;div&gt;+ SetHorizontal(horizontal): void&lt;br&gt;&lt;/div&gt;+ SetVertical(vertical): void" style="text;strokeColor=none;fillColor=none;align=left;verticalAlign=top;spacingLeft=4;spacingRight=4;overflow=hidden;rotatable=0;points=[[0,0.5],[1,0.5]];portConstraint=eastwest;whiteSpace=wrap;html=1;" parent="fyZz9nZu6kFh7QigJb9L-26" vertex="1">
          <mxGeometry y="68" width="191" height="42" as="geometry" />
        </mxCell>
        <mxCell id="fyZz9nZu6kFh7QigJb9L-70" style="edgeStyle=orthogonalEdgeStyle;rounded=0;orthogonalLoop=1;jettySize=auto;html=1;entryX=0;entryY=0.5;entryDx=0;entryDy=0;endArrow=diamondThin;endFill=1;endSize=15;" parent="WIyWlLk6GJQsqaUBKTNV-1" source="fyZz9nZu6kFh7QigJb9L-30" target="fyZz9nZu6kFh7QigJb9L-67" edge="1">
          <mxGeometry relative="1" as="geometry" />
        </mxCell>
        <mxCell id="fyZz9nZu6kFh7QigJb9L-30" value="TouchField" style="swimlane;fontStyle=1;align=center;verticalAlign=top;childLayout=stackLayout;horizontal=1;startSize=26;horizontalStack=0;resizeParent=1;resizeParentMax=0;resizeLast=0;collapsible=1;marginBottom=0;whiteSpace=wrap;html=1;" parent="WIyWlLk6GJQsqaUBKTNV-1" vertex="1">
          <mxGeometry x="-390" y="465" width="120" height="120" as="geometry">
            <mxRectangle x="610" y="260" width="70" height="30" as="alternateBounds" />
          </mxGeometry>
        </mxCell>
        <mxCell id="fyZz9nZu6kFh7QigJb9L-31" value="&lt;div&gt;+ pointerId: int&lt;/div&gt;+ pressed: bool&lt;div&gt;+&amp;nbsp;touchDist: Vector2&lt;/div&gt;&lt;div&gt;&lt;br&gt;&lt;/div&gt;" style="text;strokeColor=none;fillColor=none;align=left;verticalAlign=top;spacingLeft=4;spacingRight=4;overflow=hidden;rotatable=0;points=[[0,0.5],[1,0.5]];portConstraint=eastwest;whiteSpace=wrap;html=1;" parent="fyZz9nZu6kFh7QigJb9L-30" vertex="1">
          <mxGeometry y="26" width="120" height="54" as="geometry" />
        </mxCell>
        <mxCell id="fyZz9nZu6kFh7QigJb9L-32" value="" style="line;strokeWidth=1;fillColor=none;align=left;verticalAlign=middle;spacingTop=-1;spacingLeft=3;spacingRight=3;rotatable=0;labelPosition=right;points=[];portConstraint=eastwest;strokeColor=inherit;" parent="fyZz9nZu6kFh7QigJb9L-30" vertex="1">
          <mxGeometry y="80" width="120" height="8" as="geometry" />
        </mxCell>
        <mxCell id="fyZz9nZu6kFh7QigJb9L-33" value="&lt;div&gt;+ Update(): void&lt;/div&gt;" style="text;strokeColor=none;fillColor=none;align=left;verticalAlign=top;spacingLeft=4;spacingRight=4;overflow=hidden;rotatable=0;points=[[0,0.5],[1,0.5]];portConstraint=eastwest;whiteSpace=wrap;html=1;" parent="fyZz9nZu6kFh7QigJb9L-30" vertex="1">
          <mxGeometry y="88" width="120" height="32" as="geometry" />
        </mxCell>
        <mxCell id="fyZz9nZu6kFh7QigJb9L-34" value="Action" style="swimlane;fontStyle=1;align=center;verticalAlign=top;childLayout=stackLayout;horizontal=1;startSize=26;horizontalStack=0;resizeParent=1;resizeParentMax=0;resizeLast=0;collapsible=1;marginBottom=0;whiteSpace=wrap;html=1;" parent="WIyWlLk6GJQsqaUBKTNV-1" vertex="1">
          <mxGeometry x="20" y="400" width="160" height="290" as="geometry">
            <mxRectangle x="610" y="260" width="70" height="30" as="alternateBounds" />
          </mxGeometry>
        </mxCell>
        <mxCell id="fyZz9nZu6kFh7QigJb9L-35" value="&lt;div&gt;+ Laptop&lt;br&gt;+ Bed&lt;/div&gt;&lt;div&gt;+ Classroom&lt;/div&gt;&lt;div&gt;+ Sofa&lt;br&gt;+ Door&lt;/div&gt;&lt;div&gt;+ isTriggerEntered: bool&lt;/div&gt;" style="text;strokeColor=none;fillColor=none;align=left;verticalAlign=top;spacingLeft=4;spacingRight=4;overflow=hidden;rotatable=0;points=[[0,0.5],[1,0.5]];portConstraint=eastwest;whiteSpace=wrap;html=1;" parent="fyZz9nZu6kFh7QigJb9L-34" vertex="1">
          <mxGeometry y="26" width="160" height="94" as="geometry" />
        </mxCell>
        <mxCell id="fyZz9nZu6kFh7QigJb9L-36" value="" style="line;strokeWidth=1;fillColor=none;align=left;verticalAlign=middle;spacingTop=-1;spacingLeft=3;spacingRight=3;rotatable=0;labelPosition=right;points=[];portConstraint=eastwest;strokeColor=inherit;" parent="fyZz9nZu6kFh7QigJb9L-34" vertex="1">
          <mxGeometry y="120" width="160" height="8" as="geometry" />
        </mxCell>
        <mxCell id="fyZz9nZu6kFh7QigJb9L-37" value="&lt;div&gt;+ ButtonLaptop(): void&lt;/div&gt;&lt;div&gt;+ ButtonBed(): void&lt;/div&gt;&lt;div&gt;+ ButtonClassroom(): void&lt;br&gt;&lt;/div&gt;&lt;div&gt;+ CharacterSit(): void&lt;br&gt;+ CharacterStand(): void&lt;/div&gt;&lt;div&gt;+ OpenDoor(): void&lt;/div&gt;&lt;div&gt;+ CloseDoor(): void&lt;br&gt;&lt;div&gt;+ OpenWindow(): void&lt;/div&gt;&lt;div&gt;+ CloseWindow(): void&lt;br&gt;&lt;/div&gt;&lt;/div&gt;&lt;div&gt;+ GoClassroom(): void&lt;/div&gt;" style="text;strokeColor=none;fillColor=none;align=left;verticalAlign=top;spacingLeft=4;spacingRight=4;overflow=hidden;rotatable=0;points=[[0,0.5],[1,0.5]];portConstraint=eastwest;whiteSpace=wrap;html=1;" parent="fyZz9nZu6kFh7QigJb9L-34" vertex="1">
          <mxGeometry y="128" width="160" height="162" as="geometry" />
        </mxCell>
        <mxCell id="fyZz9nZu6kFh7QigJb9L-46" style="edgeStyle=orthogonalEdgeStyle;rounded=0;orthogonalLoop=1;jettySize=auto;html=1;exitX=1;exitY=0.5;exitDx=0;exitDy=0;entryX=0.001;entryY=0.249;entryDx=0;entryDy=0;entryPerimeter=0;endArrow=diamondThin;endFill=0;endSize=15;" parent="WIyWlLk6GJQsqaUBKTNV-1" source="fyZz9nZu6kFh7QigJb9L-14" target="fyZz9nZu6kFh7QigJb9L-52" edge="1">
          <mxGeometry relative="1" as="geometry" />
        </mxCell>
        <mxCell id="fyZz9nZu6kFh7QigJb9L-47" style="edgeStyle=orthogonalEdgeStyle;rounded=0;orthogonalLoop=1;jettySize=auto;html=1;entryX=0;entryY=0.5;entryDx=0;entryDy=0;endArrow=diamondThin;endFill=0;endSize=15;exitX=1.001;exitY=0.189;exitDx=0;exitDy=0;exitPerimeter=0;" parent="WIyWlLk6GJQsqaUBKTNV-1" source="fyZz9nZu6kFh7QigJb9L-7" edge="1">
          <mxGeometry relative="1" as="geometry">
            <mxPoint x="-170" y="105" as="sourcePoint" />
            <mxPoint x="20" y="87" as="targetPoint" />
            <Array as="points">
              <mxPoint x="-30" y="105" />
              <mxPoint x="-30" y="87" />
            </Array>
          </mxGeometry>
        </mxCell>
        <mxCell id="fyZz9nZu6kFh7QigJb9L-53" style="edgeStyle=orthogonalEdgeStyle;rounded=0;orthogonalLoop=1;jettySize=auto;html=1;endArrow=diamondThin;endFill=0;endSize=15;" parent="WIyWlLk6GJQsqaUBKTNV-1" source="fyZz9nZu6kFh7QigJb9L-1" edge="1">
          <mxGeometry relative="1" as="geometry">
            <mxPoint x="180" y="55" as="targetPoint" />
          </mxGeometry>
        </mxCell>
        <mxCell id="fyZz9nZu6kFh7QigJb9L-61" style="edgeStyle=orthogonalEdgeStyle;rounded=0;orthogonalLoop=1;jettySize=auto;html=1;entryX=1;entryY=0.081;entryDx=0;entryDy=0;entryPerimeter=0;exitX=1;exitY=0.5;exitDx=0;exitDy=0;endArrow=diamondThin;endFill=0;targetPerimeterSpacing=1;endSize=15;" parent="WIyWlLk6GJQsqaUBKTNV-1" source="fyZz9nZu6kFh7QigJb9L-3" target="PM-5KwTuOtwhzapy0X1u-10" edge="1">
          <mxGeometry relative="1" as="geometry" />
        </mxCell>
        <mxCell id="fyZz9nZu6kFh7QigJb9L-64" style="edgeStyle=orthogonalEdgeStyle;rounded=0;orthogonalLoop=1;jettySize=auto;html=1;exitX=0;exitY=0.194;exitDx=0;exitDy=0;entryX=1;entryY=0.5;entryDx=0;entryDy=0;endArrow=diamondThin;endFill=0;endSize=15;exitPerimeter=0;" parent="WIyWlLk6GJQsqaUBKTNV-1" source="PM-5KwTuOtwhzapy0X1u-10" target="fyZz9nZu6kFh7QigJb9L-56" edge="1">
          <mxGeometry relative="1" as="geometry">
            <mxPoint x="295.0000000000002" y="352" as="sourcePoint" />
            <mxPoint x="175" y="304" as="targetPoint" />
            <Array as="points">
              <mxPoint x="240" y="360" />
              <mxPoint x="240" y="283" />
            </Array>
          </mxGeometry>
        </mxCell>
        <mxCell id="fyZz9nZu6kFh7QigJb9L-66" value="Camera" style="swimlane;fontStyle=1;align=center;verticalAlign=top;childLayout=stackLayout;horizontal=1;startSize=26;horizontalStack=0;resizeParent=1;resizeParentMax=0;resizeLast=0;collapsible=1;marginBottom=0;whiteSpace=wrap;html=1;" parent="WIyWlLk6GJQsqaUBKTNV-1" vertex="1">
          <mxGeometry x="-216" y="466" width="170" height="100" as="geometry">
            <mxRectangle x="610" y="260" width="70" height="30" as="alternateBounds" />
          </mxGeometry>
        </mxCell>
        <mxCell id="fyZz9nZu6kFh7QigJb9L-67" value="&lt;div&gt;+ TouchField&lt;br&gt;&lt;/div&gt;&lt;div&gt;+&amp;nbsp;touchSensitivity: float&lt;/div&gt;" style="text;strokeColor=none;fillColor=none;align=left;verticalAlign=top;spacingLeft=4;spacingRight=4;overflow=hidden;rotatable=0;points=[[0,0.5],[1,0.5]];portConstraint=eastwest;whiteSpace=wrap;html=1;" parent="fyZz9nZu6kFh7QigJb9L-66" vertex="1">
          <mxGeometry y="26" width="170" height="34" as="geometry" />
        </mxCell>
        <mxCell id="fyZz9nZu6kFh7QigJb9L-68" value="" style="line;strokeWidth=1;fillColor=none;align=left;verticalAlign=middle;spacingTop=-1;spacingLeft=3;spacingRight=3;rotatable=0;labelPosition=right;points=[];portConstraint=eastwest;strokeColor=inherit;" parent="fyZz9nZu6kFh7QigJb9L-66" vertex="1">
          <mxGeometry y="60" width="170" height="8" as="geometry" />
        </mxCell>
        <mxCell id="fyZz9nZu6kFh7QigJb9L-69" value="&lt;div&gt;+ SetRotationCam(TouchDist)&lt;/div&gt;" style="text;strokeColor=none;fillColor=none;align=left;verticalAlign=top;spacingLeft=4;spacingRight=4;overflow=hidden;rotatable=0;points=[[0,0.5],[1,0.5]];portConstraint=eastwest;whiteSpace=wrap;html=1;" parent="fyZz9nZu6kFh7QigJb9L-66" vertex="1">
          <mxGeometry y="68" width="170" height="32" as="geometry" />
        </mxCell>
        <mxCell id="fyZz9nZu6kFh7QigJb9L-73" style="edgeStyle=orthogonalEdgeStyle;rounded=0;orthogonalLoop=1;jettySize=auto;html=1;entryX=-0.002;entryY=0.83;entryDx=0;entryDy=0;endArrow=diamondThin;endFill=1;endSize=15;exitX=1;exitY=0.5;exitDx=0;exitDy=0;entryPerimeter=0;" parent="WIyWlLk6GJQsqaUBKTNV-1" edge="1" target="fyZz9nZu6kFh7QigJb9L-56" source="fyZz9nZu6kFh7QigJb9L-67">
          <mxGeometry relative="1" as="geometry">
            <mxPoint x="-30" y="597" as="sourcePoint" />
            <mxPoint x="25" y="322" as="targetPoint" />
            <Array as="points">
              <mxPoint x="-30" y="513" />
              <mxPoint x="-30" y="315" />
              <mxPoint x="25" y="315" />
            </Array>
          </mxGeometry>
        </mxCell>
        <mxCell id="fyZz9nZu6kFh7QigJb9L-76" value="Classroom" style="swimlane;fontStyle=1;align=center;verticalAlign=top;childLayout=stackLayout;horizontal=1;startSize=26;horizontalStack=0;resizeParent=1;resizeParentMax=0;resizeLast=0;collapsible=1;marginBottom=0;whiteSpace=wrap;html=1;" parent="WIyWlLk6GJQsqaUBKTNV-1" vertex="1">
          <mxGeometry x="270" y="670" width="200" height="190" as="geometry" />
        </mxCell>
        <mxCell id="fyZz9nZu6kFh7QigJb9L-77" value="+ Action&lt;div&gt;+ Materi&lt;/div&gt;&lt;div&gt;+ DateTime&lt;/div&gt;&lt;div&gt;+ Exam&lt;br&gt;&lt;div&gt;+&amp;nbsp;isStartedClass: bool&lt;/div&gt;&lt;/div&gt;" style="text;strokeColor=none;fillColor=none;align=left;verticalAlign=top;spacingLeft=4;spacingRight=4;overflow=hidden;rotatable=0;points=[[0,0.5],[1,0.5]];portConstraint=eastwest;whiteSpace=wrap;html=1;" parent="fyZz9nZu6kFh7QigJb9L-76" vertex="1">
          <mxGeometry y="26" width="200" height="84" as="geometry" />
        </mxCell>
        <mxCell id="fyZz9nZu6kFh7QigJb9L-78" value="" style="line;strokeWidth=1;fillColor=none;align=left;verticalAlign=middle;spacingTop=-1;spacingLeft=3;spacingRight=3;rotatable=0;labelPosition=right;points=[];portConstraint=eastwest;strokeColor=inherit;" parent="fyZz9nZu6kFh7QigJb9L-76" vertex="1">
          <mxGeometry y="110" width="200" height="8" as="geometry" />
        </mxCell>
        <mxCell id="fyZz9nZu6kFh7QigJb9L-79" value="&lt;div&gt;+ ShowGoClassroom(): void&lt;/div&gt;&lt;div&gt;+ HideGoClassroom(): void&lt;br&gt;&lt;/div&gt;&lt;div&gt;+ GoClassroom(): void&lt;/div&gt;&lt;div&gt;+ StartClassroom(gameDay): void&lt;br&gt;&lt;/div&gt;" style="text;strokeColor=none;fillColor=none;align=left;verticalAlign=top;spacingLeft=4;spacingRight=4;overflow=hidden;rotatable=0;points=[[0,0.5],[1,0.5]];portConstraint=eastwest;whiteSpace=wrap;html=1;" parent="fyZz9nZu6kFh7QigJb9L-76" vertex="1">
          <mxGeometry y="118" width="200" height="72" as="geometry" />
        </mxCell>
        <mxCell id="fyZz9nZu6kFh7QigJb9L-83" style="edgeStyle=orthogonalEdgeStyle;rounded=0;orthogonalLoop=1;jettySize=auto;html=1;entryX=1;entryY=0.5;entryDx=0;entryDy=0;endArrow=diamondThin;endFill=1;endSize=15;exitX=0;exitY=0.061;exitDx=0;exitDy=0;exitPerimeter=0;" parent="WIyWlLk6GJQsqaUBKTNV-1" source="fyZz9nZu6kFh7QigJb9L-77" target="fyZz9nZu6kFh7QigJb9L-35" edge="1">
          <mxGeometry relative="1" as="geometry">
            <Array as="points">
              <mxPoint x="210" y="701" />
              <mxPoint x="210" y="473" />
            </Array>
            <mxPoint x="240" y="700" as="sourcePoint" />
          </mxGeometry>
        </mxCell>
        <mxCell id="fyZz9nZu6kFh7QigJb9L-84" style="edgeStyle=orthogonalEdgeStyle;rounded=0;orthogonalLoop=1;jettySize=auto;html=1;endArrow=diamondThin;endFill=0;endSize=15;entryX=-0.003;entryY=0.209;entryDx=0;entryDy=0;entryPerimeter=0;" parent="WIyWlLk6GJQsqaUBKTNV-1" source="fyZz9nZu6kFh7QigJb9L-37" target="fyZz9nZu6kFh7QigJb9L-77" edge="1">
          <mxGeometry relative="1" as="geometry">
            <Array as="points">
              <mxPoint x="200" y="668" />
              <mxPoint x="200" y="714" />
            </Array>
          </mxGeometry>
        </mxCell>
        <mxCell id="fyZz9nZu6kFh7QigJb9L-85" value="Materi" style="swimlane;fontStyle=1;align=center;verticalAlign=top;childLayout=stackLayout;horizontal=1;startSize=26;horizontalStack=0;resizeParent=1;resizeParentMax=0;resizeLast=0;collapsible=1;marginBottom=0;whiteSpace=wrap;html=1;" parent="WIyWlLk6GJQsqaUBKTNV-1" vertex="1">
          <mxGeometry x="8" y="721" width="220" height="100" as="geometry" />
        </mxCell>
        <mxCell id="fyZz9nZu6kFh7QigJb9L-86" value="&lt;div&gt;+&amp;nbsp;indexMateri: int&lt;/div&gt;" style="text;strokeColor=none;fillColor=none;align=left;verticalAlign=top;spacingLeft=4;spacingRight=4;overflow=hidden;rotatable=0;points=[[0,0.5],[1,0.5]];portConstraint=eastwest;whiteSpace=wrap;html=1;" parent="fyZz9nZu6kFh7QigJb9L-85" vertex="1">
          <mxGeometry y="26" width="220" height="24" as="geometry" />
        </mxCell>
        <mxCell id="fyZz9nZu6kFh7QigJb9L-87" value="" style="line;strokeWidth=1;fillColor=none;align=left;verticalAlign=middle;spacingTop=-1;spacingLeft=3;spacingRight=3;rotatable=0;labelPosition=right;points=[];portConstraint=eastwest;strokeColor=inherit;" parent="fyZz9nZu6kFh7QigJb9L-85" vertex="1">
          <mxGeometry y="50" width="220" height="8" as="geometry" />
        </mxCell>
        <mxCell id="fyZz9nZu6kFh7QigJb9L-88" value="+ SetCurrentMateri(indexMateri): void&lt;div&gt;+ GetCurrentMateri(): void&lt;/div&gt;" style="text;strokeColor=none;fillColor=none;align=left;verticalAlign=top;spacingLeft=4;spacingRight=4;overflow=hidden;rotatable=0;points=[[0,0.5],[1,0.5]];portConstraint=eastwest;whiteSpace=wrap;html=1;" parent="fyZz9nZu6kFh7QigJb9L-85" vertex="1">
          <mxGeometry y="58" width="220" height="42" as="geometry" />
        </mxCell>
        <mxCell id="fyZz9nZu6kFh7QigJb9L-90" value="DateTime" style="swimlane;fontStyle=1;align=center;verticalAlign=top;childLayout=stackLayout;horizontal=1;startSize=26;horizontalStack=0;resizeParent=1;resizeParentMax=0;resizeLast=0;collapsible=1;marginBottom=0;whiteSpace=wrap;html=1;" parent="WIyWlLk6GJQsqaUBKTNV-1" vertex="1">
          <mxGeometry x="270" y="514" width="135" height="143" as="geometry" />
        </mxCell>
        <mxCell id="fyZz9nZu6kFh7QigJb9L-91" value="&lt;div&gt;+&amp;nbsp;gameHour: int&lt;/div&gt;&lt;div&gt;+&amp;nbsp;gameMinute: int&lt;br&gt;&lt;/div&gt;&lt;div&gt;+&amp;nbsp;gameDay: int&lt;br&gt;&lt;/div&gt;&lt;div&gt;+&amp;nbsp;gameMonth: int&lt;br&gt;&lt;/div&gt;&lt;div&gt;+&amp;nbsp;gameYear: int&lt;br&gt;&lt;/div&gt;" style="text;strokeColor=none;fillColor=none;align=left;verticalAlign=top;spacingLeft=4;spacingRight=4;overflow=hidden;rotatable=0;points=[[0,0.5],[1,0.5]];portConstraint=eastwest;whiteSpace=wrap;html=1;" parent="fyZz9nZu6kFh7QigJb9L-90" vertex="1">
          <mxGeometry y="26" width="135" height="84" as="geometry" />
        </mxCell>
        <mxCell id="fyZz9nZu6kFh7QigJb9L-92" value="" style="line;strokeWidth=1;fillColor=none;align=left;verticalAlign=middle;spacingTop=-1;spacingLeft=3;spacingRight=3;rotatable=0;labelPosition=right;points=[];portConstraint=eastwest;strokeColor=inherit;" parent="fyZz9nZu6kFh7QigJb9L-90" vertex="1">
          <mxGeometry y="110" width="135" height="8" as="geometry" />
        </mxCell>
        <mxCell id="fyZz9nZu6kFh7QigJb9L-93" value="+ UpdateTime(): void" style="text;strokeColor=none;fillColor=none;align=left;verticalAlign=top;spacingLeft=4;spacingRight=4;overflow=hidden;rotatable=0;points=[[0,0.5],[1,0.5]];portConstraint=eastwest;whiteSpace=wrap;html=1;" parent="fyZz9nZu6kFh7QigJb9L-90" vertex="1">
          <mxGeometry y="118" width="135" height="25" as="geometry" />
        </mxCell>
        <mxCell id="fyZz9nZu6kFh7QigJb9L-96" style="edgeStyle=orthogonalEdgeStyle;rounded=0;orthogonalLoop=1;jettySize=auto;html=1;entryX=1.001;entryY=0.818;entryDx=0;entryDy=0;entryPerimeter=0;endArrow=diamondThin;endFill=1;endSize=15;exitX=-0.002;exitY=0.262;exitDx=0;exitDy=0;exitPerimeter=0;" parent="WIyWlLk6GJQsqaUBKTNV-1" edge="1">
          <mxGeometry relative="1" as="geometry">
            <Array as="points">
              <mxPoint x="220" y="558" />
              <mxPoint x="220" y="309" />
            </Array>
            <mxPoint x="269.73" y="558.0079999999999" as="sourcePoint" />
            <mxPoint x="175.14999999999986" y="308.89200000000005" as="targetPoint" />
          </mxGeometry>
        </mxCell>
        <mxCell id="fyZz9nZu6kFh7QigJb9L-97" style="edgeStyle=orthogonalEdgeStyle;rounded=0;orthogonalLoop=1;jettySize=auto;html=1;entryX=1;entryY=0.276;entryDx=0;entryDy=0;endArrow=diamondThin;endFill=1;entryPerimeter=0;endSize=15;" parent="WIyWlLk6GJQsqaUBKTNV-1" source="fyZz9nZu6kFh7QigJb9L-91" target="fyZz9nZu6kFh7QigJb9L-77" edge="1">
          <mxGeometry relative="1" as="geometry" />
        </mxCell>
        <mxCell id="fyZz9nZu6kFh7QigJb9L-98" value="Laptop" style="swimlane;fontStyle=1;align=center;verticalAlign=top;childLayout=stackLayout;horizontal=1;startSize=26;horizontalStack=0;resizeParent=1;resizeParentMax=0;resizeLast=0;collapsible=1;marginBottom=0;whiteSpace=wrap;html=1;" parent="WIyWlLk6GJQsqaUBKTNV-1" vertex="1">
          <mxGeometry x="-246" y="680" width="200" height="160" as="geometry" />
        </mxCell>
        <mxCell id="fyZz9nZu6kFh7QigJb9L-99" value="&lt;div&gt;&lt;div&gt;+ Materi&lt;/div&gt;&lt;div&gt;+ email: text&lt;/div&gt;&lt;/div&gt;&lt;div&gt;+ password: text&lt;/div&gt;" style="text;strokeColor=none;fillColor=none;align=left;verticalAlign=top;spacingLeft=4;spacingRight=4;overflow=hidden;rotatable=0;points=[[0,0.5],[1,0.5]];portConstraint=eastwest;whiteSpace=wrap;html=1;" parent="fyZz9nZu6kFh7QigJb9L-98" vertex="1">
          <mxGeometry y="26" width="200" height="54" as="geometry" />
        </mxCell>
        <mxCell id="fyZz9nZu6kFh7QigJb9L-100" value="" style="line;strokeWidth=1;fillColor=none;align=left;verticalAlign=middle;spacingTop=-1;spacingLeft=3;spacingRight=3;rotatable=0;labelPosition=right;points=[];portConstraint=eastwest;strokeColor=inherit;" parent="fyZz9nZu6kFh7QigJb9L-98" vertex="1">
          <mxGeometry y="80" width="200" height="8" as="geometry" />
        </mxCell>
        <mxCell id="fyZz9nZu6kFh7QigJb9L-101" value="+ Register(email, password): void&lt;div&gt;+ Login&lt;span style=&quot;background-color: initial;&quot;&gt;(email, password): void&lt;/span&gt;&lt;/div&gt;&lt;div&gt;&lt;span style=&quot;background-color: initial;&quot;&gt;+ ShowLaptop(): void&lt;/span&gt;&lt;/div&gt;&lt;div&gt;&lt;span style=&quot;background-color: initial;&quot;&gt;+ HideLaptop(): void&lt;/span&gt;&lt;/div&gt;" style="text;strokeColor=none;fillColor=none;align=left;verticalAlign=top;spacingLeft=4;spacingRight=4;overflow=hidden;rotatable=0;points=[[0,0.5],[1,0.5]];portConstraint=eastwest;whiteSpace=wrap;html=1;" parent="fyZz9nZu6kFh7QigJb9L-98" vertex="1">
          <mxGeometry y="88" width="200" height="72" as="geometry" />
        </mxCell>
        <mxCell id="fyZz9nZu6kFh7QigJb9L-102" style="edgeStyle=orthogonalEdgeStyle;rounded=0;orthogonalLoop=1;jettySize=auto;html=1;exitX=1.001;exitY=0.226;exitDx=0;exitDy=0;entryX=-0.003;entryY=0.938;entryDx=0;entryDy=0;endArrow=diamondThin;endFill=1;endSize=15;exitPerimeter=0;entryPerimeter=0;" parent="WIyWlLk6GJQsqaUBKTNV-1" source="fyZz9nZu6kFh7QigJb9L-99" target="fyZz9nZu6kFh7QigJb9L-35" edge="1">
          <mxGeometry relative="1" as="geometry">
            <Array as="points">
              <mxPoint x="-10" y="718" />
              <mxPoint x="-10" y="514" />
            </Array>
          </mxGeometry>
        </mxCell>
        <mxCell id="i9FT5CcWrlTJrgGnVpND-1" value="Exam" style="swimlane;fontStyle=1;align=center;verticalAlign=top;childLayout=stackLayout;horizontal=1;startSize=26;horizontalStack=0;resizeParent=1;resizeParentMax=0;resizeLast=0;collapsible=1;marginBottom=0;whiteSpace=wrap;html=1;" parent="WIyWlLk6GJQsqaUBKTNV-1" vertex="1">
          <mxGeometry x="-142" y="850" width="370" height="180" as="geometry" />
        </mxCell>
        <mxCell id="i9FT5CcWrlTJrgGnVpND-2" value="&lt;div&gt;+ ExamQuestion&lt;/div&gt;&lt;div&gt;+ DetailQuestion&lt;/div&gt;&lt;div&gt;&lt;span style=&quot;background-color: initial;&quot;&gt;+&amp;nbsp;titleExamText: text&lt;/span&gt;&lt;br&gt;&lt;/div&gt;+ isExam: bool&lt;div&gt;+&amp;nbsp;startButton: Button&lt;br&gt;&lt;/div&gt;&lt;div&gt;+&amp;nbsp;finishButton: Button&lt;/div&gt;" style="text;strokeColor=none;fillColor=none;align=left;verticalAlign=top;spacingLeft=4;spacingRight=4;overflow=hidden;rotatable=0;points=[[0,0.5],[1,0.5]];portConstraint=eastwest;whiteSpace=wrap;html=1;" parent="i9FT5CcWrlTJrgGnVpND-1" vertex="1">
          <mxGeometry y="26" width="370" height="94" as="geometry" />
        </mxCell>
        <mxCell id="i9FT5CcWrlTJrgGnVpND-3" value="" style="line;strokeWidth=1;fillColor=none;align=left;verticalAlign=middle;spacingTop=-1;spacingLeft=3;spacingRight=3;rotatable=0;labelPosition=right;points=[];portConstraint=eastwest;strokeColor=inherit;" parent="i9FT5CcWrlTJrgGnVpND-1" vertex="1">
          <mxGeometry y="120" width="370" height="8" as="geometry" />
        </mxCell>
        <mxCell id="i9FT5CcWrlTJrgGnVpND-4" value="+&amp;nbsp;StartButton(): void&lt;br&gt;+&amp;nbsp;CheckAnswer(questionIndex, answerIndex, isRightAnswer): void&lt;div&gt;+ FinishButton(): void&lt;/div&gt;" style="text;strokeColor=none;fillColor=none;align=left;verticalAlign=top;spacingLeft=4;spacingRight=4;overflow=hidden;rotatable=0;points=[[0,0.5],[1,0.5]];portConstraint=eastwest;whiteSpace=wrap;html=1;" parent="i9FT5CcWrlTJrgGnVpND-1" vertex="1">
          <mxGeometry y="128" width="370" height="52" as="geometry" />
        </mxCell>
        <mxCell id="i9FT5CcWrlTJrgGnVpND-5" value="ExamQuestion" style="swimlane;fontStyle=1;align=center;verticalAlign=top;childLayout=stackLayout;horizontal=1;startSize=26;horizontalStack=0;resizeParent=1;resizeParentMax=0;resizeLast=0;collapsible=1;marginBottom=0;whiteSpace=wrap;html=1;" parent="WIyWlLk6GJQsqaUBKTNV-1" vertex="1">
          <mxGeometry x="270" y="880" width="180" height="78" as="geometry" />
        </mxCell>
        <mxCell id="i9FT5CcWrlTJrgGnVpND-6" value="&lt;div&gt;+&amp;nbsp;question: string&lt;/div&gt;&lt;div&gt;+ examData:&amp;nbsp;List&amp;lt;ExamData&amp;gt;&lt;/div&gt;" style="text;strokeColor=none;fillColor=none;align=left;verticalAlign=top;spacingLeft=4;spacingRight=4;overflow=hidden;rotatable=0;points=[[0,0.5],[1,0.5]];portConstraint=eastwest;whiteSpace=wrap;html=1;" parent="i9FT5CcWrlTJrgGnVpND-5" vertex="1">
          <mxGeometry y="26" width="180" height="44" as="geometry" />
        </mxCell>
        <mxCell id="i9FT5CcWrlTJrgGnVpND-7" value="" style="line;strokeWidth=1;fillColor=none;align=left;verticalAlign=middle;spacingTop=-1;spacingLeft=3;spacingRight=3;rotatable=0;labelPosition=right;points=[];portConstraint=eastwest;strokeColor=inherit;" parent="i9FT5CcWrlTJrgGnVpND-5" vertex="1">
          <mxGeometry y="70" width="180" height="8" as="geometry" />
        </mxCell>
        <mxCell id="W7cK8VTmZWFNCc5RrEC7-17" style="edgeStyle=orthogonalEdgeStyle;rounded=0;orthogonalLoop=1;jettySize=auto;html=1;entryX=1;entryY=0.5;entryDx=0;entryDy=0;endArrow=diamondThin;endFill=1;endSize=15;" edge="1" parent="WIyWlLk6GJQsqaUBKTNV-1" source="i9FT5CcWrlTJrgGnVpND-10" target="i9FT5CcWrlTJrgGnVpND-6">
          <mxGeometry relative="1" as="geometry" />
        </mxCell>
        <mxCell id="i9FT5CcWrlTJrgGnVpND-10" value="ExamData" style="swimlane;fontStyle=1;align=center;verticalAlign=top;childLayout=stackLayout;horizontal=1;startSize=26;horizontalStack=0;resizeParent=1;resizeParentMax=0;resizeLast=0;collapsible=1;marginBottom=0;whiteSpace=wrap;html=1;" parent="WIyWlLk6GJQsqaUBKTNV-1" vertex="1">
          <mxGeometry x="500" y="890" width="140" height="108" as="geometry" />
        </mxCell>
        <mxCell id="i9FT5CcWrlTJrgGnVpND-11" value="&lt;div&gt;&lt;div&gt;+&amp;nbsp;questionIndex: int&lt;/div&gt;&lt;div&gt;+ answerIndex: int&lt;/div&gt;&lt;/div&gt;&lt;div&gt;&lt;span style=&quot;background-color: initial;&quot;&gt;+&amp;nbsp;answer: string&lt;/span&gt;&lt;br&gt;&lt;/div&gt;&lt;div&gt;&lt;span style=&quot;background-color: initial;&quot;&gt;+&amp;nbsp;isRightAnswer: bool&lt;/span&gt;&lt;br&gt;&lt;/div&gt;" style="text;strokeColor=none;fillColor=none;align=left;verticalAlign=top;spacingLeft=4;spacingRight=4;overflow=hidden;rotatable=0;points=[[0,0.5],[1,0.5]];portConstraint=eastwest;whiteSpace=wrap;html=1;" parent="i9FT5CcWrlTJrgGnVpND-10" vertex="1">
          <mxGeometry y="26" width="140" height="74" as="geometry" />
        </mxCell>
        <mxCell id="i9FT5CcWrlTJrgGnVpND-12" value="" style="line;strokeWidth=1;fillColor=none;align=left;verticalAlign=middle;spacingTop=-1;spacingLeft=3;spacingRight=3;rotatable=0;labelPosition=right;points=[];portConstraint=eastwest;strokeColor=inherit;" parent="i9FT5CcWrlTJrgGnVpND-10" vertex="1">
          <mxGeometry y="100" width="140" height="8" as="geometry" />
        </mxCell>
        <mxCell id="i9FT5CcWrlTJrgGnVpND-14" value="DetailQuestion" style="swimlane;fontStyle=1;align=center;verticalAlign=top;childLayout=stackLayout;horizontal=1;startSize=26;horizontalStack=0;resizeParent=1;resizeParentMax=0;resizeLast=0;collapsible=1;marginBottom=0;whiteSpace=wrap;html=1;" parent="WIyWlLk6GJQsqaUBKTNV-1" vertex="1">
          <mxGeometry x="-369" y="890" width="180" height="78" as="geometry" />
        </mxCell>
        <mxCell id="i9FT5CcWrlTJrgGnVpND-15" value="&lt;div&gt;&lt;span style=&quot;background-color: initial;&quot;&gt;+ questionText: text&lt;/span&gt;&lt;br&gt;&lt;/div&gt;+ toggleAnswerButton: Toggle[]" style="text;strokeColor=none;fillColor=none;align=left;verticalAlign=top;spacingLeft=4;spacingRight=4;overflow=hidden;rotatable=0;points=[[0,0.5],[1,0.5]];portConstraint=eastwest;whiteSpace=wrap;html=1;" parent="i9FT5CcWrlTJrgGnVpND-14" vertex="1">
          <mxGeometry y="26" width="180" height="44" as="geometry" />
        </mxCell>
        <mxCell id="i9FT5CcWrlTJrgGnVpND-16" value="" style="line;strokeWidth=1;fillColor=none;align=left;verticalAlign=middle;spacingTop=-1;spacingLeft=3;spacingRight=3;rotatable=0;labelPosition=right;points=[];portConstraint=eastwest;strokeColor=inherit;" parent="i9FT5CcWrlTJrgGnVpND-14" vertex="1">
          <mxGeometry y="70" width="180" height="8" as="geometry" />
        </mxCell>
        <mxCell id="i9FT5CcWrlTJrgGnVpND-22" style="edgeStyle=orthogonalEdgeStyle;rounded=0;orthogonalLoop=1;jettySize=auto;html=1;entryX=1.005;entryY=0.433;entryDx=0;entryDy=0;entryPerimeter=0;endArrow=diamondThin;endFill=1;endSize=15;" parent="WIyWlLk6GJQsqaUBKTNV-1" source="i9FT5CcWrlTJrgGnVpND-6" target="i9FT5CcWrlTJrgGnVpND-2" edge="1">
          <mxGeometry relative="1" as="geometry">
            <Array as="points">
              <mxPoint x="260" y="928" />
              <mxPoint x="260" y="917" />
            </Array>
          </mxGeometry>
        </mxCell>
        <mxCell id="i9FT5CcWrlTJrgGnVpND-26" style="edgeStyle=orthogonalEdgeStyle;rounded=0;orthogonalLoop=1;jettySize=auto;html=1;entryX=1;entryY=0.5;entryDx=0;entryDy=0;exitX=1;exitY=0.236;exitDx=0;exitDy=0;exitPerimeter=0;endArrow=diamondThin;endFill=1;endSize=15;" parent="WIyWlLk6GJQsqaUBKTNV-1" source="fyZz9nZu6kFh7QigJb9L-56" target="PM-5KwTuOtwhzapy0X1u-3" edge="1">
          <mxGeometry relative="1" as="geometry">
            <Array as="points">
              <mxPoint x="210" y="258" />
              <mxPoint x="210" y="164" />
            </Array>
          </mxGeometry>
        </mxCell>
        <mxCell id="i9FT5CcWrlTJrgGnVpND-28" style="edgeStyle=orthogonalEdgeStyle;rounded=0;orthogonalLoop=1;jettySize=auto;html=1;entryX=1.001;entryY=0.982;entryDx=0;entryDy=0;exitX=1.003;exitY=0.251;exitDx=0;exitDy=0;endArrow=diamondThin;endFill=0;endSize=15;entryPerimeter=0;exitPerimeter=0;" parent="WIyWlLk6GJQsqaUBKTNV-1" edge="1">
          <mxGeometry relative="1" as="geometry">
            <mxPoint x="180.48000000000025" y="444.59400000000005" as="sourcePoint" />
            <mxPoint x="175.14999999999986" y="323.30800000000005" as="targetPoint" />
            <Array as="points">
              <mxPoint x="210" y="445" />
              <mxPoint x="210" y="323" />
            </Array>
          </mxGeometry>
        </mxCell>
        <mxCell id="W7cK8VTmZWFNCc5RrEC7-1" style="edgeStyle=orthogonalEdgeStyle;rounded=0;orthogonalLoop=1;jettySize=auto;html=1;entryX=0.003;entryY=0.833;entryDx=0;entryDy=0;entryPerimeter=0;endArrow=diamondThin;endFill=1;endSize=15;" edge="1" parent="WIyWlLk6GJQsqaUBKTNV-1" source="PM-5KwTuOtwhzapy0X1u-12" target="fyZz9nZu6kFh7QigJb9L-52">
          <mxGeometry relative="1" as="geometry" />
        </mxCell>
        <mxCell id="W7cK8VTmZWFNCc5RrEC7-4" style="edgeStyle=orthogonalEdgeStyle;rounded=0;orthogonalLoop=1;jettySize=auto;html=1;entryX=0.002;entryY=0.186;entryDx=0;entryDy=0;entryPerimeter=0;endArrow=diamondThin;endFill=1;endSize=15;" edge="1" parent="WIyWlLk6GJQsqaUBKTNV-1" source="fyZz9nZu6kFh7QigJb9L-27" target="fyZz9nZu6kFh7QigJb9L-23">
          <mxGeometry relative="1" as="geometry" />
        </mxCell>
        <mxCell id="W7cK8VTmZWFNCc5RrEC7-5" style="edgeStyle=orthogonalEdgeStyle;rounded=0;orthogonalLoop=1;jettySize=auto;html=1;entryX=0;entryY=0.5;entryDx=0;entryDy=0;endArrow=diamondThin;endFill=1;endSize=15;" edge="1" parent="WIyWlLk6GJQsqaUBKTNV-1" source="fyZz9nZu6kFh7QigJb9L-86" target="fyZz9nZu6kFh7QigJb9L-77">
          <mxGeometry relative="1" as="geometry">
            <Array as="points">
              <mxPoint x="240" y="758" />
              <mxPoint x="240" y="738" />
            </Array>
          </mxGeometry>
        </mxCell>
        <mxCell id="W7cK8VTmZWFNCc5RrEC7-6" style="edgeStyle=orthogonalEdgeStyle;rounded=0;orthogonalLoop=1;jettySize=auto;html=1;entryX=1;entryY=0.705;entryDx=0;entryDy=0;endArrow=diamondThin;endFill=1;endSize=15;entryPerimeter=0;" edge="1" parent="WIyWlLk6GJQsqaUBKTNV-1" source="fyZz9nZu6kFh7QigJb9L-86" target="fyZz9nZu6kFh7QigJb9L-99">
          <mxGeometry relative="1" as="geometry">
            <Array as="points">
              <mxPoint x="-10" y="758" />
              <mxPoint x="-10" y="744" />
            </Array>
          </mxGeometry>
        </mxCell>
        <mxCell id="W7cK8VTmZWFNCc5RrEC7-7" value="Bed" style="swimlane;fontStyle=1;align=center;verticalAlign=top;childLayout=stackLayout;horizontal=1;startSize=26;horizontalStack=0;resizeParent=1;resizeParentMax=0;resizeLast=0;collapsible=1;marginBottom=0;whiteSpace=wrap;html=1;" vertex="1" parent="WIyWlLk6GJQsqaUBKTNV-1">
          <mxGeometry x="-246" y="580" width="200" height="90" as="geometry" />
        </mxCell>
        <mxCell id="W7cK8VTmZWFNCc5RrEC7-9" value="" style="line;strokeWidth=1;fillColor=none;align=left;verticalAlign=middle;spacingTop=-1;spacingLeft=3;spacingRight=3;rotatable=0;labelPosition=right;points=[];portConstraint=eastwest;strokeColor=inherit;" vertex="1" parent="W7cK8VTmZWFNCc5RrEC7-7">
          <mxGeometry y="26" width="200" height="8" as="geometry" />
        </mxCell>
        <mxCell id="W7cK8VTmZWFNCc5RrEC7-10" value="&lt;div&gt;&lt;span style=&quot;background-color: initial;&quot;&gt;+ ShowBed(): void&lt;/span&gt;&lt;/div&gt;&lt;div&gt;&lt;span style=&quot;background-color: initial;&quot;&gt;+ HideBed(): void&lt;/span&gt;&lt;/div&gt;&lt;div&gt;&lt;span style=&quot;background-color: initial;&quot;&gt;+ Sleep(): void&lt;/span&gt;&lt;/div&gt;" style="text;strokeColor=none;fillColor=none;align=left;verticalAlign=top;spacingLeft=4;spacingRight=4;overflow=hidden;rotatable=0;points=[[0,0.5],[1,0.5]];portConstraint=eastwest;whiteSpace=wrap;html=1;" vertex="1" parent="W7cK8VTmZWFNCc5RrEC7-7">
          <mxGeometry y="34" width="200" height="56" as="geometry" />
        </mxCell>
        <mxCell id="W7cK8VTmZWFNCc5RrEC7-12" style="edgeStyle=orthogonalEdgeStyle;rounded=0;orthogonalLoop=1;jettySize=auto;html=1;endSize=15;endArrow=diamondThin;endFill=1;" edge="1" parent="WIyWlLk6GJQsqaUBKTNV-1" source="W7cK8VTmZWFNCc5RrEC7-10" target="fyZz9nZu6kFh7QigJb9L-35">
          <mxGeometry relative="1" as="geometry">
            <Array as="points">
              <mxPoint x="-20" y="634" />
              <mxPoint x="-20" y="473" />
            </Array>
          </mxGeometry>
        </mxCell>
        <mxCell id="W7cK8VTmZWFNCc5RrEC7-13" style="edgeStyle=orthogonalEdgeStyle;rounded=0;orthogonalLoop=1;jettySize=auto;html=1;entryX=0.003;entryY=0.847;entryDx=0;entryDy=0;entryPerimeter=0;endArrow=diamondThin;endFill=1;endSize=15;exitX=1.002;exitY=0.129;exitDx=0;exitDy=0;exitPerimeter=0;" edge="1" parent="WIyWlLk6GJQsqaUBKTNV-1" source="fyZz9nZu6kFh7QigJb9L-23">
          <mxGeometry relative="1" as="geometry">
            <mxPoint x="-40" y="281" as="sourcePoint" />
            <mxPoint x="25.449999999999818" y="280.618" as="targetPoint" />
            <Array as="points">
              <mxPoint x="-40" y="281" />
            </Array>
          </mxGeometry>
        </mxCell>
        <mxCell id="W7cK8VTmZWFNCc5RrEC7-14" style="edgeStyle=orthogonalEdgeStyle;rounded=0;orthogonalLoop=1;jettySize=auto;html=1;entryX=0;entryY=0.881;entryDx=0;entryDy=0;entryPerimeter=0;endArrow=diamondThin;endFill=1;endSize=15;exitX=1;exitY=0.191;exitDx=0;exitDy=0;exitPerimeter=0;" edge="1" parent="WIyWlLk6GJQsqaUBKTNV-1" source="i9FT5CcWrlTJrgGnVpND-2" target="fyZz9nZu6kFh7QigJb9L-77">
          <mxGeometry relative="1" as="geometry">
            <Array as="points">
              <mxPoint x="240" y="894" />
              <mxPoint x="240" y="770" />
            </Array>
          </mxGeometry>
        </mxCell>
        <mxCell id="W7cK8VTmZWFNCc5RrEC7-16" style="edgeStyle=orthogonalEdgeStyle;rounded=0;orthogonalLoop=1;jettySize=auto;html=1;entryX=0;entryY=0.5;entryDx=0;entryDy=0;endArrow=diamondThin;endFill=1;endSize=15;" edge="1" parent="WIyWlLk6GJQsqaUBKTNV-1" source="i9FT5CcWrlTJrgGnVpND-15" target="i9FT5CcWrlTJrgGnVpND-2">
          <mxGeometry relative="1" as="geometry" />
        </mxCell>
      </root>
    </mxGraphModel>
  </diagram>
</mxfile>
